<svg width="800" height="600" viewBox="0 0 800 600" fill="none" xmlns="http://www.w3.org/2000/svg">
  <rect width="800" height="600" rx="10" fill="#151C48"/>
  <rect x="20" y="20" width="760" height="60" rx="8" fill="#1E2642"/>
  
  <!-- Top navigation bar elements -->
  <rect x="40" y="40" width="120" height="20" rx="4" fill="#00B4FF"/>
  <rect x="600" y="40" width="80" height="20" rx="4" fill="#2A325A"/>
  <rect x="700" y="40" width="40" height="20" rx="4" fill="#2A325A"/>
  
  <!-- Left sidebar -->
  <rect x="20" y="100" width="200" height="480" rx="8" fill="#1E2642"/>
  <rect x="40" y="130" width="160" height="20" rx="4" fill="#2A325A"/>
  <rect x="40" y="170" width="160" height="20" rx="4" fill="#2A325A"/>
  <rect x="40" y="210" width="160" height="20" rx="4" fill="#00B4FF"/>
  <rect x="40" y="250" width="160" height="20" rx="4" fill="#2A325A"/>
  <rect x="40" y="290" width="160" height="20" rx="4" fill="#2A325A"/>
  
  <!-- Main content area -->
  <rect x="240" y="100" width="540" height="100" rx="8" fill="#1E2642"/>
  <rect x="260" y="120" width="300" height="30" rx="4" fill="#00B4FF" fill-opacity="0.8"/>
  <rect x="260" y="160" width="200" height="20" rx="4" fill="#2A325A"/>
  
  <!-- Stat boxes -->
  <rect x="240" y="220" width="260" height="120" rx="8" fill="#1E2642"/>
  <rect x="520" y="220" width="260" height="120" rx="8" fill="#1E2642"/>
  <rect x="240" y="360" width="260" height="220" rx="8" fill="#1E2642"/>
  <rect x="520" y="360" width="260" height="220" rx="8" fill="#1E2642"/>
  
  <!-- Chart elements -->
  <circle cx="370" cy="280" r="50" stroke="#00B4FF" stroke-width="6" fill="none"/>
  <rect x="650" y="240" width="80" height="80" rx="40" fill="#00B4FF" fill-opacity="0.5"/>
  
  <!-- Graph lines -->
  <path d="M260 440 L300 420 L340 450 L380 410 L420 430 L460 390" stroke="#00B4FF" stroke-width="3"/>
  <path d="M540 440 L580 470 L620 430 L660 450 L700 420 L740 460" stroke="#00E1B0" stroke-width="3"/>
  
  <!-- Column chart -->
  <rect x="280" y="520" width="20" height="40" rx="4" fill="#00B4FF"/>
  <rect x="320" y="500" width="20" height="60" rx="4" fill="#00B4FF"/>
  <rect x="360" y="480" width="20" height="80" rx="4" fill="#00B4FF"/>
  <rect x="400" y="510" width="20" height="50" rx="4" fill="#00B4FF"/>
  <rect x="440" y="490" width="20" height="70" rx="4" fill="#00B4FF"/>
  
  <!-- Data table -->
  <rect x="540" y="390" width="220" height="30" rx="4" fill="#2A325A"/>
  <rect x="540" y="430" width="220" height="30" rx="4" fill="#2A325A"/>
  <rect x="540" y="470" width="220" height="30" rx="4" fill="#2A325A"/>
  <rect x="540" y="510" width="220" height="30" rx="4" fill="#2A325A"/>
</svg> 