<svg width="800" height="500" viewBox="0 0 800 500" xmlns="http://www.w3.org/2000/svg">
  <!-- Background -->
  <rect width="800" height="500" fill="#0A0F2C" rx="8"/>
  
  <!-- Sidebar -->
  <rect x="0" y="0" width="200" height="500" fill="#111936" rx="8" ry="8"/>
  
  <!-- Header -->
  <rect x="20" y="20" width="160" height="40" fill="#1A2143" rx="4"/>
  
  <!-- Navigation Items -->
  <rect x="20" y="80" width="160" height="40" fill="#00AAFF" rx="4"/>
  <rect x="20" y="130" width="160" height="40" fill="#1A2143" rx="4"/>
  <rect x="20" y="180" width="160" height="40" fill="#1A2143" rx="4"/>
  <rect x="20" y="230" width="160" height="40" fill="#1A2143" rx="4"/>
  
  <!-- Main Content Area -->
  <rect x="220" y="20" width="560" height="60" fill="#111936" rx="4"/>
  
  <!-- Stats Cards -->
  <rect x="220" y="100" width="270" height="120" fill="#111936" rx="4"/>
  <rect x="510" y="100" width="270" height="120" fill="#111936" rx="4"/>
  <rect x="220" y="240" width="270" height="120" fill="#111936" rx="4"/>
  <rect x="510" y="240" width="270" height="120" fill="#111936" rx="4"/>
  
  <!-- Table or Content -->
  <rect x="220" y="380" width="560" height="100" fill="#111936" rx="4"/>
  
  <!-- UI Elements - Buttons -->
  <rect x="700" y="30" width="60" height="30" fill="#00AAFF" rx="4"/>
  
  <!-- Card Content Lines -->
  <rect x="240" y="120" width="100" height="10" fill="#7C3AED" rx="2"/>
  <rect x="240" y="140" width="180" height="8" fill="#1E293B" rx="2"/>
  <rect x="240" y="160" width="150" height="8" fill="#1E293B" rx="2"/>
  
  <rect x="530" y="120" width="100" height="10" fill="#7C3AED" rx="2"/>
  <rect x="530" y="140" width="180" height="8" fill="#1E293B" rx="2"/>
  <rect x="530" y="160" width="150" height="8" fill="#1E293B" rx="2"/>
  
  <rect x="240" y="260" width="100" height="10" fill="#7C3AED" rx="2"/>
  <rect x="240" y="280" width="180" height="8" fill="#1E293B" rx="2"/>
  <rect x="240" y="300" width="150" height="8" fill="#1E293B" rx="2"/>
  
  <rect x="530" y="260" width="100" height="10" fill="#7C3AED" rx="2"/>
  <rect x="530" y="280" width="180" height="8" fill="#1E293B" rx="2"/>
  <rect x="530" y="300" width="150" height="8" fill="#1E293B" rx="2"/>
  
  <!-- Table Headers -->
  <rect x="240" y="400" width="520" height="10" fill="#7C3AED" rx="2"/>
  <rect x="240" y="430" width="120" height="8" fill="#1E293B" rx="2"/>
  <rect x="380" y="430" width="120" height="8" fill="#1E293B" rx="2"/>
  <rect x="520" y="430" width="120" height="8" fill="#1E293B" rx="2"/>
  <rect x="240" y="450" width="520" height="1" fill="#1E293B"/>
  <rect x="240" y="470" width="120" height="8" fill="#1E293B" rx="2"/>
  <rect x="380" y="470" width="120" height="8" fill="#1E293B" rx="2"/>
  <rect x="520" y="470" width="120" height="8" fill="#1E293B" rx="2"/>
  
  <!-- Glow Effect -->
  <circle cx="310" cy="160" r="30" fill="url(#glow)" opacity="0.6"/>
  <circle cx="600" cy="280" r="40" fill="url(#glow)" opacity="0.4"/>
  
  <!-- Gradients -->
  <defs>
    <linearGradient id="glow" x1="0%" y1="0%" x2="100%" y2="100%">
      <stop offset="0%" stop-color="#00AAFF" stop-opacity="0.8"/>
      <stop offset="100%" stop-color="#7C3AED" stop-opacity="0"/>
    </linearGradient>
  </defs>
</svg> 